<svg id="SvgjsSvg1001" width="288" height="288" xmlns="http://www.w3.org/2000/svg" version="1.1" xmlns:xlink="http://www.w3.org/1999/xlink" xmlns:svgjs="http://svgjs.com/svgjs"><defs id="SvgjsDefs1002"></defs><g id="SvgjsG1008"><svg xmlns="http://www.w3.org/2000/svg" viewBox="0 0 24 24" width="288" height="288"><path d="M20 20h-4c-.6 0-1-.4-1-1s.4-1 1-1h4c1.1 0 2-.9 2-2V4c0-1.1-.9-2-2-2H4c-1.1 0-2 .9-2 2v12c0 1.1.9 2 2 2h4c.6 0 1 .4 1 1s-.4 1-1 1H4c-2.2 0-4-1.8-4-4V4c0-2.2 1.8-4 4-4h16c2.2 0 4 1.8 4 4v12c0 2.2-1.8 4-4 4z" fill="#0077b5" class="color000 svgShape"></path><path d="M12 24c-.3 0-.5-.1-.7-.3l-4-4c-.4-.4-.4-1 0-1.4s1-.4 1.4 0l3.3 3.3 3.3-3.3c.4-.4 1-.4 1.4 0s.4 1 0 1.4l-4 4c-.2.2-.4.3-.7.3zm6-17H6c-.6 0-1-.4-1-1s.4-1 1-1h12c.6 0 1 .4 1 1s-.4 1-1 1zm-5 4H6c-.6 0-1-.4-1-1s.4-1 1-1h7c.6 0 1 .4 1 1s-.4 1-1 1zm3 4H6c-.6 0-1-.4-1-1s.4-1 1-1h10c.6 0 1 .4 1 1s-.4 1-1 1z" fill="#0077b5" class="color000 svgShape"></path></svg></g></svg>