<svg xmlns="http://www.w3.org/2000/svg" xml:space="preserve" version="1.1" style="shape-rendering:geometricPrecision; text-rendering:geometricPrecision; image-rendering:optimizeQuality; fill-rule:evenodd; clip-rule:evenodd" xmlns:xlink="http://www.w3.org/1999/xlink" xmlns:xodm="http://www.corel.com/coreldraw/odm/2003" viewBox="5500 6594.22 11553 11553.02">
 <defs>
  <style type="text/css">
   <![CDATA[
    .fil2 {fill:#FEFEFE}
    .fil0 {fill:#3596FF}
    .fil1 {fill:#FEFEFE;fill-rule:nonzero}
   ]]>
  </style>
 </defs>
 <g id="Слой_x0020_1">
  <metadata id="CorelCorpID_0Corel-Layer"/>
  <rect class="fil0" x="5500.01" y="6594.22" width="11552.98" height="11552.98" rx="2777.55" ry="2777.55"/>
  <polygon class="fil1" points="8762.89,12367.03 8762.89,16496.63 7723.05,16496.63 7723.05,12367.03 "/>
  <path class="fil1" d="M8380.18 15512.8l1306.8 0c233.36,0 414.44,-59.74 543.26,-175.49 130.68,-117.61 194.15,-281.88 194.15,-498.44l0 -1037.98c0,-201.61 -31.74,-373.36 -97.07,-515.25 -67.21,-141.87 -158.69,-250.15 -276.3,-324.83 -119.48,-74.67 -259.49,-112.01 -420.04,-112.01l-1250.8 0 0 -481.77 1968.27 0 -0.6 0.13c233.36,37.33 434.98,119.47 601.13,246.42 168.01,126.94 296.82,293.09 384.57,494.71 85.87,201.62 130.68,438.71 130.68,707.54l0 1051.04c0,345.37 -65.34,640.33 -197.89,883.02 -130.68,242.7 -322.96,427.51 -576.86,554.45 -252.02,128.82 -558.19,192.29 -914.75,192.29l-1394.55 0 0 -983.83z"/>
  <polygon class="fil1" points="8762.89,12374.1 8762.89,8244.5 7723.05,8244.5 7723.05,12374.1 "/>
  <path class="fil1" d="M8380.18 9228.33l1306.8 0c233.36,0 414.44,59.73 543.26,175.48 130.68,117.62 194.15,281.89 194.15,498.45l0 1037.97c0,201.62 -31.74,373.37 -97.07,515.25 -67.21,141.88 -158.69,250.16 -276.3,324.84 -119.48,74.67 -259.49,112.01 -420.04,112.01l-1250.8 0 0 481.77 1968.27 0 -0.6 -0.13c233.36,-37.33 434.98,-119.47 601.13,-246.42 168.01,-126.94 296.82,-293.09 384.57,-494.71 85.87,-201.63 130.68,-438.72 130.68,-707.54l0 -1051.04c0,-345.37 -65.34,-640.34 -197.89,-883.02 -130.68,-242.7 -322.96,-427.51 -576.86,-554.46 -252.02,-128.81 -558.19,-192.28 -914.75,-192.28l-1394.55 0 0 983.83z"/>
  <path class="fil2" d="M12974.94 8946.99c0,362.3 275.05,660.37 627.73,696.75 185.04,197.17 317.08,585.89 383.32,941.08 76.68,411.73 78.5,794.4 4.38,1207.31 -28.59,159.3 -40.06,402.82 169.82,415.93 109.92,6.88 226.99,-48.7 313.8,-302.13 100.83,-294.35 233.59,-921.28 267.75,-1394.09 30.95,-428.32 3.32,-883.74 -121.46,-1296.33 -106.34,-351.63 -220.32,-611.06 -494.74,-805.27 -121.73,-102.19 -278.73,-163.74 -450.12,-163.74 -386.86,0 -700.48,313.62 -700.48,700.49z"/>
 </g>
</svg>